<svg xmlns="http://www.w3.org/2000/svg" width="100%" viewBox="0 0 512 512" preserveAspectRatio="xMidYMid meet">
  <path d="M204.407 506.8a254.587 254.587 0 0 1-91.539-38.52 256.753 256.753 0 0 1-92.75-112.632A254.675 254.675 0 0 1 5.2 307.593a258.492 258.492 0 0 1 0-103.186 254.587 254.587 0 0 1 38.52-91.539 256.753 256.753 0 0 1 112.632-92.75A254.674 254.674 0 0 1 204.407 5.2a258.492 258.492 0 0 1 103.186 0 254.588 254.588 0 0 1 91.539 38.52 256.753 256.753 0 0 1 92.75 112.632A254.677 254.677 0 0 1 506.8 204.407a258.491 258.491 0 0 1 0 103.186 254.588 254.588 0 0 1-38.52 91.539 256.753 256.753 0 0 1-112.632 92.75A254.7 254.7 0 0 1 307.593 506.8a258.491 258.491 0 0 1-103.186 0Zm12.9-438.9a190.95 190.95 0 0 0-68.654 28.89 192.563 192.563 0 0 0-69.563 84.474A191.024 191.024 0 0 0 67.9 217.305a193.879 193.879 0 0 0 0 77.389 190.963 190.963 0 0 0 28.89 68.655 192.563 192.563 0 0 0 84.474 69.563 191.025 191.025 0 0 0 36.04 11.188 193.879 193.879 0 0 0 77.389 0 190.964 190.964 0 0 0 68.655-28.89 192.557 192.557 0 0 0 69.563-84.475 191 191 0 0 0 11.188-36.04 193.879 193.879 0 0 0 0-77.389 190.951 190.951 0 0 0-28.89-68.654 192.557 192.557 0 0 0-84.475-69.563A191 191 0 0 0 294.694 67.9a193.879 193.879 0 0 0-77.389 0ZM128 256A128 128 0 1 1 256 384 128 128 0 0 1 128 256Z"/>
</svg>
