<svg xmlns="http://www.w3.org/2000/svg" width="100%" viewBox="0 0 341.321 341.48" preserveAspectRatio="xMidYMid meet">
  <path d="M-355.5,142.32h.231l-.14.08ZM-469.677,140.2l-.016,0-.212-.049-.068-.016-.163-.038-.089-.021-.124-.029q-2.954-.7-5.826-1.6l-.014,0-.185-.058-.054-.017-.157-.05-.139-.044-.077-.025A85.308,85.308,0,0,1-533.32,78.32a83.926,83.926,0,0,1-2-10.46c-.11-.89-.21-1.78-.3-2.68q-.135-1.462-.222-2.95-.158-2.6-.158-5.24V-114.45A85.67,85.67,0,0,1-451.45-199h1.88a85.659,85.659,0,0,1,84.758,81.444A85.66,85.66,0,0,1-441.16-28.18q-1.062.067-2.122.167l.032,0q-1.041.1-2.07.222-1.364.171-2.72.4c-.6.09-1.2.19-1.79.31a.29.29,0,0,0-.13,0c-.58.1-1.17.221-1.75.36s-1.21.26-1.81.42-1.2.29-1.78.46A71.237,71.237,0,0,0-495.02,2.4l-.1.142c-.234.333-.461.667-.68,1.018A71.038,71.038,0,0,0-507.593,42.8a71.026,71.026,0,0,0,4.9,25.919,71.181,71.181,0,0,0,3.579,7.727,71.079,71.079,0,0,0,62.64,37.406h2.1a13.327,13.327,0,0,0,1.54-.06c.54-.059,1,0,1.5-.09h.63l.163,0c.526-.016,1.05-.1,1.567-.158.945-.093,1.875-.213,2.8-.345l.512-.074c.59-.09,1.181-.19,1.76-.3.543-.1,1.1-.2,1.633-.307l.107-.022c.571-.12,1.07-.221,1.61-.35s1.238-.285,1.851-.452l.029-.008c.62-.17,1.1-.28,1.65-.44s1.121-.32,1.68-.5c.39-.12.79-.239,1.17-.38l.72-.239c.48-.16,1-.33,1.41-.5s1.09-.4,1.63-.62,1-.4,1.5-.61l.239-.1,1.33-.63.16-.08c1-.46,2-.94,3-1.46.5-.25,1-.51,1.49-.78l1.5-.84c.42-.24.841-.48,1.25-.74l.391-.24c.439-.26.859-.53,1.29-.8,1-.62,1.91-1.26,2.84-1.92.461-.32.911-.66,1.371-1a70.294,70.294,0,0,0,6.4-5.4,113.925,113.925,0,0,0,32.38,47.92h-95.455A85.322,85.322,0,0,1-469.677,140.2Zm188.567,2.125a85.659,85.659,0,0,1-84.759-81.444A85.66,85.66,0,0,1-289.52-28.5q1.063-.067,2.122-.167l-.033,0q.994-.092,1.977-.21,1.411-.175,2.813-.41c.6-.089,1.2-.19,1.789-.31a.29.29,0,0,0,.13,0c.58-.1,1.17-.22,1.75-.36s1.211-.26,1.81-.42,1.2-.29,1.78-.46a71.236,71.236,0,0,0,39.721-28.24c.27-.38.529-.76.779-1.159a71.042,71.042,0,0,0,11.793-39.239,71.021,71.021,0,0,0-8.483-33.646,71.081,71.081,0,0,0-62.64-37.406h-2.1a13.322,13.322,0,0,0-1.54.06c-.54.06-1,0-1.5.09h-.63a16.5,16.5,0,0,0-1.73.16c-1.12.11-2.22.26-3.31.419-.59.09-1.18.19-1.76.3s-1.17.21-1.74.329-1.07.221-1.61.35-1.26.29-1.88.46-1.1.28-1.65.44-1.12.32-1.68.5c-.39.12-.79.239-1.17.38l-.72.24c-.48.159-1,.329-1.409.5s-1.091.4-1.631.62-1,.4-1.5.61l-.24.1-1.33.63-.159.08c-1,.46-2,.94-3,1.46-.5.25-1,.51-1.49.78l-1.5.84c-.42.24-.84.48-1.25.74l-.39.24c-.44.26-.86.53-1.291.8-1,.62-1.91,1.26-2.84,1.92-.46.32-.91.661-1.37,1a70.319,70.319,0,0,0-6.4,5.4A113.942,113.942,0,0,0-375.41-199l.14-.08.091.08H-280a85.357,85.357,0,0,1,18.743,2.067l.008,0,.22.05.094.021.127.029.135.031.075.018q3.2.745,6.31,1.727h0l.205.065.02.006.219.07.2.064.033.011.221.072.007,0A85.315,85.315,0,0,1-197.36-135a83.937,83.937,0,0,1,2,10.46c.11.89.211,1.78.3,2.68q.379,4,.38,8.19V57.77a85.67,85.67,0,0,1-84.551,84.55ZM-437.8,86.072a43.309,43.309,0,0,1-41.948-41.948A43.31,43.31,0,0,1-440.48-.34a113.8,113.8,0,0,0,103-102.119c.05-.53.1-1.06.14-1.6a43.31,43.31,0,0,1,45.368-38.511A43.31,43.31,0,0,1-250.98-99.43l.04-.01a43.31,43.31,0,0,1-38.67,43.1l-1.6.14A113.8,113.8,0,0,0-393.34,46.8a43.314,43.314,0,0,1-43.1,39.294C-436.9,86.094-437.348,86.087-437.8,86.072Z" transform="translate(536 199.08)"/>
</svg>
